# xmcd
#
# Track frame offsets: 
#        150
#        21518
#        42681
#        64652
#        78124
#        93666
#        116920
#        137309
#        158437
#        179161
#        203536
#        218982
#        236920
#        251217
#        267253
#        287526
#        302277
#
# Disc length: 4329 seconds
#
# Revision: 0
# Processed by: cddbd v1.5.2PL0 Copyright (c) Steve Scherf et al.
# Submitted via: ExactAudioCopy v0.99pb4
#
DISCID=f410e711
DTITLE=Olivia Newton-John - Olivia Newton-John
DYEAR=2010
DGENRE=Country
TTITLE0=Banks Of The Ohio
TTITLE1=If Not For You
TTITLE2=Angel Of The Morning
TTITLE3=Let Me Be There
TTITLE4=Help Me Make It Through The Night
TTITLE5=If You Could Read My Mind
TTITLE6=No Regrets
TTITLE7=Come On Over
TTITLE8=Me And Bobby McGee
TTITLE9=Love Song
TTITLE10=If
TTITLE11=In A Station
TTITLE12=Just A Little Too Much
TTITLE13=Lullaby
TTITLE14=Where Are You Going To My Love
TTITLE15=If I Gotta Leave
TTITLE16=Take Me Home Country Roads
EXTD=
EXTT0=
EXTT1=
EXTT2=
EXTT3=
EXTT4=
EXTT5=
EXTT6=
EXTT7=
EXTT8=
EXTT9=
EXTT10=
EXTT11=
EXTT12=
EXTT13=
EXTT14=
EXTT15=
EXTT16=
PLAYORDER=
